<svg id="visual" viewBox="0 0 960 540" width="960" height="540" xmlns="http://www.w3.org/2000/svg" xmlns:xlink="http://www.w3.org/1999/xlink" version="1.1"><rect x="0" y="0" width="960" height="540" fill="#164863"></rect><path d="M0 215L22.8 212.3C45.7 209.7 91.3 204.3 137 203.7C182.7 203 228.3 207 274 204.3C319.7 201.7 365.3 192.3 411.2 185.2C457 178 503 173 548.8 166.3C594.7 159.7 640.3 151.3 686 152C731.7 152.7 777.3 162.3 823 174.2C868.7 186 914.3 200 937.2 207L960 214L960 0L937.2 0C914.3 0 868.7 0 823 0C777.3 0 731.7 0 686 0C640.3 0 594.7 0 548.8 0C503 0 457 0 411.2 0C365.3 0 319.7 0 274 0C228.3 0 182.7 0 137 0C91.3 0 45.7 0 22.8 0L0 0Z" fill="#427d9d"></path><path d="M0 134L22.8 136.2C45.7 138.3 91.3 142.7 137 145.7C182.7 148.7 228.3 150.3 274 149.2C319.7 148 365.3 144 411.2 146.7C457 149.3 503 158.7 548.8 154.5C594.7 150.3 640.3 132.7 686 130C731.7 127.3 777.3 139.7 823 139.3C868.7 139 914.3 126 937.2 119.5L960 113L960 0L937.2 0C914.3 0 868.7 0 823 0C777.3 0 731.7 0 686 0C640.3 0 594.7 0 548.8 0C503 0 457 0 411.2 0C365.3 0 319.7 0 274 0C228.3 0 182.7 0 137 0C91.3 0 45.7 0 22.8 0L0 0Z" fill="#588da7"></path><path d="M0 128L22.8 128.5C45.7 129 91.3 130 137 125.7C182.7 121.3 228.3 111.7 274 106.7C319.7 101.7 365.3 101.3 411.2 98.2C457 95 503 89 548.8 89.7C594.7 90.3 640.3 97.7 686 105.8C731.7 114 777.3 123 823 118.8C868.7 114.7 914.3 97.3 937.2 88.7L960 80L960 0L937.2 0C914.3 0 868.7 0 823 0C777.3 0 731.7 0 686 0C640.3 0 594.7 0 548.8 0C503 0 457 0 411.2 0C365.3 0 319.7 0 274 0C228.3 0 182.7 0 137 0C91.3 0 45.7 0 22.8 0L0 0Z" fill="#6e9db2"></path><path d="M0 76L22.8 80.3C45.7 84.7 91.3 93.3 137 97.7C182.7 102 228.3 102 274 95C319.7 88 365.3 74 411.2 68.2C457 62.3 503 64.7 548.8 67.5C594.7 70.3 640.3 73.7 686 73.3C731.7 73 777.3 69 823 71.7C868.7 74.3 914.3 83.7 937.2 88.3L960 93L960 0L937.2 0C914.3 0 868.7 0 823 0C777.3 0 731.7 0 686 0C640.3 0 594.7 0 548.8 0C503 0 457 0 411.2 0C365.3 0 319.7 0 274 0C228.3 0 182.7 0 137 0C91.3 0 45.7 0 22.8 0L0 0Z" fill="#84aebd"></path><path d="M0 60L22.8 59.8C45.7 59.7 91.3 59.3 137 53C182.7 46.7 228.3 34.3 274 30.3C319.7 26.3 365.3 30.7 411.2 36.5C457 42.3 503 49.7 548.8 54C594.7 58.3 640.3 59.7 686 55.8C731.7 52 777.3 43 823 39.8C868.7 36.7 914.3 39.3 937.2 40.7L960 42L960 0L937.2 0C914.3 0 868.7 0 823 0C777.3 0 731.7 0 686 0C640.3 0 594.7 0 548.8 0C503 0 457 0 411.2 0C365.3 0 319.7 0 274 0C228.3 0 182.7 0 137 0C91.3 0 45.7 0 22.8 0L0 0Z" fill="#9bbec8"></path></svg>